<?xml version="1.0" encoding="utf-8"?>
<!-- Generator: Adobe Illustrator 16.0.0, SVG Export Plug-In . SVG Version: 6.00 Build 0)  -->
<!DOCTYPE svg PUBLIC "-//W3C//DTD SVG 1.1//EN" "http://www.w3.org/Graphics/SVG/1.1/DTD/svg11.dtd">
<svg version="1.1" id="Layer_1" xmlns="http://www.w3.org/2000/svg" xmlns:xlink="http://www.w3.org/1999/xlink" x="0px" y="0px"
	 width="50px" height="50px" viewBox="0 0 50 50" enable-background="new 0 0 50 50" xml:space="preserve">
<path fill="#0C1D30" d="M44.405,6.542c-0.103-0.476-0.475-0.848-0.951-0.95c-2.508-0.537-4.472-0.537-6.427-0.537
	c-8.041,0-12.862,4.3-16.461,9.973h-8.119c-1.413,0.001-2.706,0.799-3.34,2.063l-3.851,7.697c-0.461,0.924-0.085,2.048,0.839,2.508
	c0.26,0.13,0.546,0.196,0.836,0.196h8.085l-1.751,1.751c-0.974,0.975-0.974,2.551,0,3.525l3.966,3.967
	c0.975,0.974,2.553,0.976,3.526,0l0,0l1.75-1.751v8.09c0,1.033,0.837,1.871,1.87,1.871c0.289,0,0.574-0.067,0.834-0.195l7.688-3.849
	c1.267-0.632,2.066-1.928,2.065-3.342v-8.135c5.656-3.608,9.973-8.445,9.973-16.446C44.946,11.015,44.946,9.052,44.405,6.542z
	 M34.974,18.144c-1.722,0-3.116-1.396-3.116-3.116c0-1.722,1.395-3.116,3.116-3.116c1.721,0,3.117,1.395,3.117,3.116
	C38.091,16.748,36.694,18.144,34.974,18.144z"/>
</svg>
