<?xml version="1.0" encoding="utf-8"?>
<!-- Generator: Adobe Illustrator 16.0.0, SVG Export Plug-In . SVG Version: 6.00 Build 0)  -->
<!DOCTYPE svg PUBLIC "-//W3C//DTD SVG 1.1//EN" "http://www.w3.org/Graphics/SVG/1.1/DTD/svg11.dtd">
<svg version="1.1" id="Layer_1" xmlns="http://www.w3.org/2000/svg" xmlns:xlink="http://www.w3.org/1999/xlink" x="0px" y="0px"
	 width="50px" height="50px" viewBox="0 0 50 50" enable-background="new 0 0 50 50" xml:space="preserve">
<path fill="#0C1D30" d="M46.309,26.841C44.189,16.746,36.059,10.68,27.37,9.74V8.414c0-1.311-1.06-2.37-2.37-2.37
	c-1.312,0-2.37,1.059-2.37,2.37V9.74c-8.717,0.94-16.776,7.006-18.939,17.101c-0.162,0.748,0.63,1.577,1.386,0.845
	c3.851-4.074,7.977-3.88,11.746,2.74c0.393,0.703,1.104,0.637,1.459,0c1.496-2.621,3.326-5.422,6.718-5.422
	c4.332,0,6.532,5.096,6.718,5.422c0.355,0.637,1.066,0.703,1.458,0c3.777-6.629,7.934-6.77,11.747-2.74
	C45.686,28.426,46.471,27.589,46.309,26.841z M22.63,28.389v9.65c0,0.65-0.533,1.186-1.186,1.186c-0.577,0-0.978-0.394-1.118-0.793
	c-0.437-1.236-1.784-1.881-3.021-1.443c-1.236,0.438-1.881,1.792-1.444,3.021c0.83,2.362,3.081,3.946,5.584,3.946
	c3.267,0,5.926-2.658,5.926-5.924v-9.65c-0.674-0.586-1.467-1.008-2.37-1.008C24.089,27.382,23.341,27.729,22.63,28.389z"/>
</svg>
